<svg width="8" height="16" viewBox="0 0 8 16" fill="none" xmlns="http://www.w3.org/2000/svg">
<path fill-rule="evenodd" clip-rule="evenodd" d="M1.66561 8.0304V15.7774C1.66561 15.9033 1.75989 15.9663 1.85417 15.9663H4.71399C4.8397 15.9663 4.90255 15.8718 4.90255 15.7774V7.90443H6.9767C7.07098 7.90443 7.16526 7.80996 7.16526 7.71548L7.35382 5.3536C7.35382 5.22763 7.25954 5.13316 7.16526 5.13316H4.90255V3.46409C4.90255 3.0547 5.21681 2.73978 5.62536 2.73978H7.22812C7.35382 2.73978 7.41667 2.64531 7.41667 2.55083V0.18895C7.41667 0.0629833 7.3224 0 7.22812 0H4.52543C2.92267 0 1.63418 1.29116 1.63418 2.89724V5.19614H0.188557C0.0628503 5.19614 0 5.29062 0 5.38509V7.74697C0 7.87294 0.0942769 7.93592 0.188557 7.93592H1.63418V8.0304H1.66561Z" fill="#2E2E2E"/>
</svg>
