<svg width="17" height="17" viewBox="0 0 17 17" fill="none" xmlns="http://www.w3.org/2000/svg">
<path d="M12.7906 4.94394C13.3286 4.94394 13.7648 4.50686 13.7648 3.9677C13.7648 3.42853 13.3286 2.99146 12.7906 2.99146C12.2525 2.99146 11.8164 3.42853 11.8164 3.9677C11.8164 4.50686 12.2525 4.94394 12.7906 4.94394Z" fill="#2E2E2E"/>
<path d="M8.42229 4.25122C6.15957 4.25122 4.3054 6.10923 4.3054 8.37664C4.3054 10.644 6.15957 12.5021 8.42229 12.5021C10.685 12.5021 12.5392 10.644 12.5392 8.37664C12.5392 6.10923 10.7164 4.25122 8.42229 4.25122ZM8.42229 10.9905C6.97666 10.9905 5.78244 9.79377 5.78244 8.34515C5.78244 6.89653 6.97666 5.69984 8.42229 5.69984C9.86791 5.69984 11.0621 6.89653 11.0621 8.34515C11.0621 9.82526 9.89933 10.9905 8.42229 10.9905Z" fill="#2E2E2E"/>
<path d="M11.6907 16.7221H5.02825C2.26271 16.7221 0 14.4547 0 11.6834V5.03868C0 2.26741 2.26271 0 5.02825 0H11.6907C14.4562 0 16.719 2.26741 16.719 5.03868V11.7149C16.719 14.4862 14.4562 16.7221 11.6907 16.7221ZM5.02825 1.57459C3.14266 1.57459 1.57133 3.11768 1.57133 5.03868V11.7149C1.57133 13.6044 3.11123 15.179 5.02825 15.179H11.6907C13.5763 15.179 15.1476 13.6359 15.1476 11.7149V5.03868C15.1476 3.14918 13.6077 1.57459 11.6907 1.57459H5.02825Z" fill="#2E2E2E"/>
</svg>
