<svg width="16" height="13" viewBox="0 0 16 13" fill="none" xmlns="http://www.w3.org/2000/svg">
<path d="M15.4749 1.55083C14.9721 1.77127 14.4378 1.89724 13.9036 1.99171C14.155 1.96022 14.5321 1.48785 14.6892 1.29889C14.9092 1.01547 15.0978 0.700551 15.2235 0.354142C15.2235 0.32265 15.2549 0.291159 15.2235 0.259667C15.1921 0.259667 15.1606 0.259667 15.1292 0.259667C14.5321 0.574584 13.935 0.795026 13.275 0.983977C13.2122 0.983977 13.1808 0.983977 13.1493 0.952486C13.0865 0.889502 13.0551 0.826519 12.9922 0.795027C12.7094 0.574585 12.4265 0.385634 12.0808 0.228175C11.6409 0.0392243 11.1695 -0.0237588 10.6981 0.00773293C10.2267 0.0392247 9.78669 0.165191 9.37814 0.385634C8.9696 0.606076 8.59248 0.889502 8.30964 1.2674C7.99537 1.6453 7.77539 2.08619 7.68111 2.52707C7.58683 2.96796 7.58683 3.40884 7.64968 3.88122C7.64968 3.9442 7.64968 3.97569 7.58683 3.9442C5.00985 3.5663 2.87284 2.65304 1.1758 0.700551C1.11295 0.606076 1.05009 0.606076 0.987242 0.700551C0.233003 1.83425 0.610123 3.66078 1.55292 4.54255C1.67863 4.66851 1.80433 4.79448 1.96147 4.88896C1.89861 4.88896 1.27008 4.82597 0.735829 4.54255C0.672976 4.47956 0.610123 4.51105 0.610123 4.60553C0.610123 4.7315 0.610122 4.82597 0.641549 4.98343C0.798682 6.11713 1.58435 7.18785 2.65285 7.59725C2.77856 7.66023 2.93569 7.69172 3.0614 7.72321C2.80998 7.7862 2.55857 7.81769 1.83576 7.75471C1.74148 7.72321 1.71005 7.7862 1.74148 7.88067C2.27573 9.32929 3.43852 9.77018 4.28703 10.0221C4.41274 10.0536 4.50702 10.0536 4.63273 10.0851C4.63273 10.0851 4.63273 10.0851 4.6013 10.1166C4.31846 10.5575 3.31281 10.8724 2.87284 11.0298C2.02432 11.3133 1.11295 11.4707 0.233003 11.3763C0.0758705 11.3448 0.0758706 11.3448 0.0130174 11.3763C-0.0184092 11.4077 0.0130172 11.4392 0.0444438 11.4707C0.233003 11.5967 0.421563 11.6912 0.578696 11.7857C1.14437 12.1006 1.74148 12.321 2.33859 12.4785C5.51267 13.3602 9.0953 12.6989 11.4523 10.337C13.3379 8.47902 13.9664 5.89669 13.9664 3.34586C13.9664 3.25138 14.0921 3.1884 14.155 3.12542C14.6264 2.74752 15.0349 2.30663 15.3806 1.83425C15.4749 1.73978 15.4435 1.61381 15.4435 1.58232C15.5378 1.51934 15.5378 1.51934 15.4749 1.55083Z" fill="#2E2E2E"/>
</svg>
